<mxfile host="app.diagrams.net" modified="2021-10-05T19:05:41.557Z" agent="5.0 (Windows NT 10.0; Win64; x64) AppleWebKit/537.36 (KHTML, like Gecko) Chrome/93.0.4577.82 YaBrowser/21.9.0.1044 Yowser/2.5 Safari/537.36" etag="lnoBlI7xC82qXDupu708" version="15.4.1" type="github">
  <diagram id="C5RBs43oDa-KdzZeNtuy" name="Page-1">
    <mxGraphModel dx="981" dy="544" grid="1" gridSize="10" guides="1" tooltips="1" connect="1" arrows="1" fold="1" page="1" pageScale="1" pageWidth="827" pageHeight="1169" math="0" shadow="0">
      <root>
        <mxCell id="WIyWlLk6GJQsqaUBKTNV-0" />
        <mxCell id="WIyWlLk6GJQsqaUBKTNV-1" parent="WIyWlLk6GJQsqaUBKTNV-0" />
        <mxCell id="Xk0NxCDFOZxf7ItBGTgv-0" value="Прораб" style="shape=umlActor;verticalLabelPosition=bottom;verticalAlign=top;html=1;outlineConnect=0;fillColor=#d5e8d4;strokeColor=#82b366;" parent="WIyWlLk6GJQsqaUBKTNV-1" vertex="1">
          <mxGeometry x="40" y="40" width="40" height="80" as="geometry" />
        </mxCell>
        <mxCell id="Xk0NxCDFOZxf7ItBGTgv-8" value="" style="edgeStyle=orthogonalEdgeStyle;curved=1;orthogonalLoop=1;jettySize=auto;html=1;opacity=50;" parent="WIyWlLk6GJQsqaUBKTNV-1" source="Xk0NxCDFOZxf7ItBGTgv-3" target="Xk0NxCDFOZxf7ItBGTgv-7" edge="1">
          <mxGeometry relative="1" as="geometry" />
        </mxCell>
        <mxCell id="Xk0NxCDFOZxf7ItBGTgv-3" value="Общаться с заказчиком" style="rounded=0;whiteSpace=wrap;html=1;fillColor=#d5e8d4;strokeColor=#82b366;" parent="WIyWlLk6GJQsqaUBKTNV-1" vertex="1">
          <mxGeometry x="25" y="170" width="70" height="50" as="geometry" />
        </mxCell>
        <mxCell id="Xk0NxCDFOZxf7ItBGTgv-5" value="" style="endArrow=none;html=1;edgeStyle=orthogonalEdgeStyle;exitX=0.5;exitY=0;exitDx=0;exitDy=0;fillColor=#d5e8d4;strokeColor=#82b366;curved=1;opacity=50;" parent="WIyWlLk6GJQsqaUBKTNV-1" source="Xk0NxCDFOZxf7ItBGTgv-3" edge="1">
          <mxGeometry width="50" height="50" relative="1" as="geometry">
            <mxPoint x="210" y="200" as="sourcePoint" />
            <mxPoint x="60" y="120" as="targetPoint" />
          </mxGeometry>
        </mxCell>
        <mxCell id="Xk0NxCDFOZxf7ItBGTgv-9" value="" style="edgeStyle=orthogonalEdgeStyle;curved=1;orthogonalLoop=1;jettySize=auto;html=1;opacity=50;" parent="WIyWlLk6GJQsqaUBKTNV-1" target="Xk0NxCDFOZxf7ItBGTgv-7" edge="1">
          <mxGeometry relative="1" as="geometry">
            <mxPoint x="150" y="250" as="sourcePoint" />
          </mxGeometry>
        </mxCell>
        <mxCell id="Xk0NxCDFOZxf7ItBGTgv-7" value="Предложить заказчику проекты" style="rounded=0;whiteSpace=wrap;html=1;fillColor=#d5e8d4;strokeColor=#82b366;" parent="WIyWlLk6GJQsqaUBKTNV-1" vertex="1">
          <mxGeometry x="110" y="170" width="80" height="50" as="geometry" />
        </mxCell>
        <mxCell id="Xk0NxCDFOZxf7ItBGTgv-13" value="" style="edgeStyle=orthogonalEdgeStyle;curved=1;orthogonalLoop=1;jettySize=auto;html=1;opacity=50;" parent="WIyWlLk6GJQsqaUBKTNV-1" source="Xk0NxCDFOZxf7ItBGTgv-10" target="Xk0NxCDFOZxf7ItBGTgv-12" edge="1">
          <mxGeometry relative="1" as="geometry" />
        </mxCell>
        <mxCell id="DW5_w6Yt8YtxqgNB4Eyj-4" value="" style="edgeStyle=orthogonalEdgeStyle;rounded=0;orthogonalLoop=1;jettySize=auto;html=1;" edge="1" parent="WIyWlLk6GJQsqaUBKTNV-1" source="Xk0NxCDFOZxf7ItBGTgv-10" target="DW5_w6Yt8YtxqgNB4Eyj-2">
          <mxGeometry relative="1" as="geometry" />
        </mxCell>
        <mxCell id="Xk0NxCDFOZxf7ItBGTgv-10" value="Составить план работы" style="rounded=0;whiteSpace=wrap;html=1;fillColor=#d5e8d4;strokeColor=#82b366;" parent="WIyWlLk6GJQsqaUBKTNV-1" vertex="1">
          <mxGeometry x="310" y="170" width="60" height="50" as="geometry" />
        </mxCell>
        <mxCell id="Xk0NxCDFOZxf7ItBGTgv-30" value="" style="edgeStyle=orthogonalEdgeStyle;curved=1;orthogonalLoop=1;jettySize=auto;html=1;opacity=50;" parent="WIyWlLk6GJQsqaUBKTNV-1" source="Xk0NxCDFOZxf7ItBGTgv-12" target="Xk0NxCDFOZxf7ItBGTgv-29" edge="1">
          <mxGeometry relative="1" as="geometry" />
        </mxCell>
        <mxCell id="Xk0NxCDFOZxf7ItBGTgv-12" value="Следить за качеством выполнения плана" style="rounded=0;whiteSpace=wrap;html=1;fillColor=#d5e8d4;strokeColor=#82b366;" parent="WIyWlLk6GJQsqaUBKTNV-1" vertex="1">
          <mxGeometry x="390" y="170" width="110" height="50" as="geometry" />
        </mxCell>
        <mxCell id="Xk0NxCDFOZxf7ItBGTgv-36" style="edgeStyle=orthogonalEdgeStyle;curved=1;orthogonalLoop=1;jettySize=auto;html=1;exitX=0.5;exitY=1;exitDx=0;exitDy=0;entryX=0.5;entryY=0;entryDx=0;entryDy=0;opacity=50;" parent="WIyWlLk6GJQsqaUBKTNV-1" source="Xk0NxCDFOZxf7ItBGTgv-14" target="Xk0NxCDFOZxf7ItBGTgv-16" edge="1">
          <mxGeometry relative="1" as="geometry" />
        </mxCell>
        <mxCell id="DW5_w6Yt8YtxqgNB4Eyj-28" style="edgeStyle=orthogonalEdgeStyle;rounded=0;orthogonalLoop=1;jettySize=auto;html=1;entryX=0.5;entryY=0;entryDx=0;entryDy=0;entryPerimeter=0;opacity=50;" edge="1" parent="WIyWlLk6GJQsqaUBKTNV-1" source="Xk0NxCDFOZxf7ItBGTgv-14" target="DW5_w6Yt8YtxqgNB4Eyj-23">
          <mxGeometry relative="1" as="geometry">
            <Array as="points">
              <mxPoint x="777" y="265" />
            </Array>
          </mxGeometry>
        </mxCell>
        <mxCell id="Xk0NxCDFOZxf7ItBGTgv-14" value="Выплатить зар. плату дизайнерам" style="rounded=0;whiteSpace=wrap;html=1;fillColor=#d5e8d4;strokeColor=#82b366;" parent="WIyWlLk6GJQsqaUBKTNV-1" vertex="1">
          <mxGeometry x="610" y="240" width="90" height="50" as="geometry" />
        </mxCell>
        <mxCell id="DW5_w6Yt8YtxqgNB4Eyj-29" style="edgeStyle=orthogonalEdgeStyle;rounded=0;orthogonalLoop=1;jettySize=auto;html=1;entryX=0.5;entryY=1;entryDx=0;entryDy=0;entryPerimeter=0;opacity=50;" edge="1" parent="WIyWlLk6GJQsqaUBKTNV-1" source="Xk0NxCDFOZxf7ItBGTgv-16" target="DW5_w6Yt8YtxqgNB4Eyj-23">
          <mxGeometry relative="1" as="geometry">
            <Array as="points">
              <mxPoint x="777" y="335" />
            </Array>
          </mxGeometry>
        </mxCell>
        <mxCell id="Xk0NxCDFOZxf7ItBGTgv-16" value="Выплатить зар. плату рабочим" style="rounded=0;whiteSpace=wrap;html=1;fillColor=#d5e8d4;strokeColor=#82b366;" parent="WIyWlLk6GJQsqaUBKTNV-1" vertex="1">
          <mxGeometry x="610" y="310" width="90" height="50" as="geometry" />
        </mxCell>
        <mxCell id="Xk0NxCDFOZxf7ItBGTgv-18" value="" style="html=1;whiteSpace=wrap;aspect=fixed;shape=isoRectangle;fillColor=#d5e8d4;strokeColor=#82b366;" parent="WIyWlLk6GJQsqaUBKTNV-1" vertex="1">
          <mxGeometry x="210" y="171.25" width="81.25" height="48.75" as="geometry" />
        </mxCell>
        <mxCell id="Xk0NxCDFOZxf7ItBGTgv-20" value="" style="endArrow=classic;html=1;opacity=50;edgeStyle=orthogonalEdgeStyle;curved=1;exitX=1;exitY=0.5;exitDx=0;exitDy=0;" parent="WIyWlLk6GJQsqaUBKTNV-1" source="Xk0NxCDFOZxf7ItBGTgv-7" edge="1">
          <mxGeometry width="50" height="50" relative="1" as="geometry">
            <mxPoint x="350" y="200" as="sourcePoint" />
            <mxPoint x="210" y="195" as="targetPoint" />
          </mxGeometry>
        </mxCell>
        <mxCell id="Xk0NxCDFOZxf7ItBGTgv-21" value="" style="endArrow=classic;html=1;opacity=50;edgeStyle=orthogonalEdgeStyle;curved=1;exitX=0.482;exitY=0.025;exitDx=0;exitDy=0;exitPerimeter=0;entryX=0.5;entryY=0;entryDx=0;entryDy=0;" parent="WIyWlLk6GJQsqaUBKTNV-1" source="Xk0NxCDFOZxf7ItBGTgv-18" target="Xk0NxCDFOZxf7ItBGTgv-7" edge="1">
          <mxGeometry width="50" height="50" relative="1" as="geometry">
            <mxPoint x="350" y="200" as="sourcePoint" />
            <mxPoint x="400" y="150" as="targetPoint" />
            <Array as="points">
              <mxPoint x="248" y="130" />
              <mxPoint x="150" y="130" />
            </Array>
          </mxGeometry>
        </mxCell>
        <mxCell id="Xk0NxCDFOZxf7ItBGTgv-22" value="" style="endArrow=classic;html=1;opacity=50;edgeStyle=orthogonalEdgeStyle;curved=1;entryX=0;entryY=0.5;entryDx=0;entryDy=0;" parent="WIyWlLk6GJQsqaUBKTNV-1" target="Xk0NxCDFOZxf7ItBGTgv-10" edge="1">
          <mxGeometry width="50" height="50" relative="1" as="geometry">
            <mxPoint x="290" y="195" as="sourcePoint" />
            <mxPoint x="400" y="150" as="targetPoint" />
          </mxGeometry>
        </mxCell>
        <mxCell id="Xk0NxCDFOZxf7ItBGTgv-35" style="edgeStyle=orthogonalEdgeStyle;curved=1;orthogonalLoop=1;jettySize=auto;html=1;exitX=0.5;exitY=1;exitDx=0;exitDy=0;entryX=0.5;entryY=0;entryDx=0;entryDy=0;opacity=50;" parent="WIyWlLk6GJQsqaUBKTNV-1" source="Xk0NxCDFOZxf7ItBGTgv-23" target="Xk0NxCDFOZxf7ItBGTgv-14" edge="1">
          <mxGeometry relative="1" as="geometry" />
        </mxCell>
        <mxCell id="DW5_w6Yt8YtxqgNB4Eyj-6" value="" style="edgeStyle=orthogonalEdgeStyle;rounded=0;orthogonalLoop=1;jettySize=auto;html=1;" edge="1" parent="WIyWlLk6GJQsqaUBKTNV-1" source="Xk0NxCDFOZxf7ItBGTgv-23" target="DW5_w6Yt8YtxqgNB4Eyj-5">
          <mxGeometry relative="1" as="geometry" />
        </mxCell>
        <mxCell id="Xk0NxCDFOZxf7ItBGTgv-23" value="Получить оплату проекта" style="rounded=0;whiteSpace=wrap;html=1;fillColor=#d5e8d4;strokeColor=#82b366;" parent="WIyWlLk6GJQsqaUBKTNV-1" vertex="1">
          <mxGeometry x="610" y="170" width="90" height="50" as="geometry" />
        </mxCell>
        <mxCell id="Xk0NxCDFOZxf7ItBGTgv-31" value="" style="edgeStyle=orthogonalEdgeStyle;curved=1;orthogonalLoop=1;jettySize=auto;html=1;opacity=50;" parent="WIyWlLk6GJQsqaUBKTNV-1" source="Xk0NxCDFOZxf7ItBGTgv-29" target="Xk0NxCDFOZxf7ItBGTgv-23" edge="1">
          <mxGeometry relative="1" as="geometry" />
        </mxCell>
        <mxCell id="Xk0NxCDFOZxf7ItBGTgv-29" value="" style="html=1;whiteSpace=wrap;aspect=fixed;shape=isoRectangle;fillColor=#d5e8d4;strokeColor=#82b366;" parent="WIyWlLk6GJQsqaUBKTNV-1" vertex="1">
          <mxGeometry x="520" y="174.63" width="70" height="42" as="geometry" />
        </mxCell>
        <mxCell id="Xk0NxCDFOZxf7ItBGTgv-37" value="" style="curved=1;endArrow=classic;html=1;opacity=50;edgeStyle=orthogonalEdgeStyle;exitX=0.492;exitY=0.043;exitDx=0;exitDy=0;exitPerimeter=0;entryX=0.5;entryY=0;entryDx=0;entryDy=0;" parent="WIyWlLk6GJQsqaUBKTNV-1" source="Xk0NxCDFOZxf7ItBGTgv-29" target="Xk0NxCDFOZxf7ItBGTgv-12" edge="1">
          <mxGeometry width="50" height="50" relative="1" as="geometry">
            <mxPoint x="350" y="200" as="sourcePoint" />
            <mxPoint x="400" y="150" as="targetPoint" />
            <Array as="points">
              <mxPoint x="554" y="130" />
              <mxPoint x="445" y="130" />
            </Array>
          </mxGeometry>
        </mxCell>
        <mxCell id="DW5_w6Yt8YtxqgNB4Eyj-34" style="edgeStyle=orthogonalEdgeStyle;rounded=0;orthogonalLoop=1;jettySize=auto;html=1;entryX=0.5;entryY=0;entryDx=0;entryDy=0;opacity=50;" edge="1" parent="WIyWlLk6GJQsqaUBKTNV-1" source="DW5_w6Yt8YtxqgNB4Eyj-2" target="DW5_w6Yt8YtxqgNB4Eyj-33">
          <mxGeometry relative="1" as="geometry">
            <Array as="points">
              <mxPoint x="470" y="262" />
              <mxPoint x="470" y="380" />
              <mxPoint x="700" y="380" />
            </Array>
          </mxGeometry>
        </mxCell>
        <mxCell id="DW5_w6Yt8YtxqgNB4Eyj-2" value="План работы" style="strokeWidth=2;html=1;shape=mxgraph.flowchart.database;whiteSpace=wrap;" vertex="1" parent="WIyWlLk6GJQsqaUBKTNV-1">
          <mxGeometry x="300" y="245" width="80" height="35" as="geometry" />
        </mxCell>
        <mxCell id="DW5_w6Yt8YtxqgNB4Eyj-3" value="Проекты" style="strokeWidth=2;html=1;shape=mxgraph.flowchart.database;whiteSpace=wrap;" vertex="1" parent="WIyWlLk6GJQsqaUBKTNV-1">
          <mxGeometry x="120" y="250" width="60" height="30" as="geometry" />
        </mxCell>
        <mxCell id="DW5_w6Yt8YtxqgNB4Eyj-5" value="Денежные средства" style="strokeWidth=2;html=1;shape=mxgraph.flowchart.database;whiteSpace=wrap;" vertex="1" parent="WIyWlLk6GJQsqaUBKTNV-1">
          <mxGeometry x="727" y="162.35" width="73" height="66.56" as="geometry" />
        </mxCell>
        <mxCell id="DW5_w6Yt8YtxqgNB4Eyj-7" value="Дизайнер" style="shape=umlActor;verticalLabelPosition=bottom;verticalAlign=top;html=1;outlineConnect=0;fillColor=#f5f5f5;strokeColor=#666666;fontColor=#333333;" vertex="1" parent="WIyWlLk6GJQsqaUBKTNV-1">
          <mxGeometry x="35" y="320" width="45" height="90" as="geometry" />
        </mxCell>
        <mxCell id="DW5_w6Yt8YtxqgNB4Eyj-15" value="" style="edgeStyle=orthogonalEdgeStyle;rounded=0;orthogonalLoop=1;jettySize=auto;html=1;opacity=50;" edge="1" parent="WIyWlLk6GJQsqaUBKTNV-1" source="DW5_w6Yt8YtxqgNB4Eyj-8" target="DW5_w6Yt8YtxqgNB4Eyj-14">
          <mxGeometry relative="1" as="geometry" />
        </mxCell>
        <mxCell id="DW5_w6Yt8YtxqgNB4Eyj-8" value="Разработать дизайн-проект" style="rounded=0;whiteSpace=wrap;html=1;fillColor=#f5f5f5;strokeColor=#666666;fontColor=#333333;" vertex="1" parent="WIyWlLk6GJQsqaUBKTNV-1">
          <mxGeometry x="105" y="350" width="90" height="60" as="geometry" />
        </mxCell>
        <mxCell id="DW5_w6Yt8YtxqgNB4Eyj-11" value="" style="endArrow=none;html=1;rounded=0;edgeStyle=orthogonalEdgeStyle;entryX=0;entryY=0.5;entryDx=0;entryDy=0;fillColor=#f5f5f5;strokeColor=#666666;opacity=50;" edge="1" parent="WIyWlLk6GJQsqaUBKTNV-1" target="DW5_w6Yt8YtxqgNB4Eyj-8">
          <mxGeometry width="50" height="50" relative="1" as="geometry">
            <mxPoint x="80" y="380" as="sourcePoint" />
            <mxPoint x="430" y="280" as="targetPoint" />
            <Array as="points">
              <mxPoint x="58" y="380" />
              <mxPoint x="58" y="380" />
            </Array>
          </mxGeometry>
        </mxCell>
        <mxCell id="DW5_w6Yt8YtxqgNB4Eyj-16" style="edgeStyle=orthogonalEdgeStyle;rounded=0;orthogonalLoop=1;jettySize=auto;html=1;entryX=0.5;entryY=1;entryDx=0;entryDy=0;entryPerimeter=0;opacity=50;" edge="1" parent="WIyWlLk6GJQsqaUBKTNV-1" source="DW5_w6Yt8YtxqgNB4Eyj-14" target="DW5_w6Yt8YtxqgNB4Eyj-3">
          <mxGeometry relative="1" as="geometry">
            <Array as="points">
              <mxPoint x="265" y="310" />
              <mxPoint x="150" y="310" />
            </Array>
          </mxGeometry>
        </mxCell>
        <mxCell id="DW5_w6Yt8YtxqgNB4Eyj-18" value="" style="edgeStyle=orthogonalEdgeStyle;rounded=0;orthogonalLoop=1;jettySize=auto;html=1;opacity=50;" edge="1" parent="WIyWlLk6GJQsqaUBKTNV-1" source="DW5_w6Yt8YtxqgNB4Eyj-14" target="DW5_w6Yt8YtxqgNB4Eyj-17">
          <mxGeometry relative="1" as="geometry" />
        </mxCell>
        <mxCell id="DW5_w6Yt8YtxqgNB4Eyj-14" value="Передать проект прорабу" style="rounded=0;whiteSpace=wrap;html=1;fillColor=#f5f5f5;strokeColor=#666666;fontColor=#333333;" vertex="1" parent="WIyWlLk6GJQsqaUBKTNV-1">
          <mxGeometry x="220" y="350" width="90" height="60" as="geometry" />
        </mxCell>
        <mxCell id="DW5_w6Yt8YtxqgNB4Eyj-17" value="Получить зар. плату" style="rounded=0;whiteSpace=wrap;html=1;fillColor=#f5f5f5;strokeColor=#666666;fontColor=#333333;" vertex="1" parent="WIyWlLk6GJQsqaUBKTNV-1">
          <mxGeometry x="334" y="350" width="80" height="60" as="geometry" />
        </mxCell>
        <mxCell id="DW5_w6Yt8YtxqgNB4Eyj-23" value="Зар. плата" style="strokeWidth=2;html=1;shape=mxgraph.flowchart.database;whiteSpace=wrap;" vertex="1" parent="WIyWlLk6GJQsqaUBKTNV-1">
          <mxGeometry x="740" y="280" width="73" height="40" as="geometry" />
        </mxCell>
        <mxCell id="DW5_w6Yt8YtxqgNB4Eyj-31" value="" style="edgeStyle=orthogonalEdgeStyle;rounded=0;orthogonalLoop=1;jettySize=auto;html=1;opacity=50;" edge="1" parent="WIyWlLk6GJQsqaUBKTNV-1" source="DW5_w6Yt8YtxqgNB4Eyj-30" target="DW5_w6Yt8YtxqgNB4Eyj-17">
          <mxGeometry relative="1" as="geometry" />
        </mxCell>
        <mxCell id="DW5_w6Yt8YtxqgNB4Eyj-38" style="edgeStyle=orthogonalEdgeStyle;rounded=0;orthogonalLoop=1;jettySize=auto;html=1;entryX=0;entryY=0.5;entryDx=0;entryDy=0;opacity=50;" edge="1" parent="WIyWlLk6GJQsqaUBKTNV-1" source="DW5_w6Yt8YtxqgNB4Eyj-30" target="DW5_w6Yt8YtxqgNB4Eyj-36">
          <mxGeometry relative="1" as="geometry" />
        </mxCell>
        <mxCell id="DW5_w6Yt8YtxqgNB4Eyj-30" value="Зар. плата" style="strokeWidth=2;html=1;shape=mxgraph.flowchart.database;whiteSpace=wrap;" vertex="1" parent="WIyWlLk6GJQsqaUBKTNV-1">
          <mxGeometry x="337.5" y="430" width="73" height="40" as="geometry" />
        </mxCell>
        <mxCell id="DW5_w6Yt8YtxqgNB4Eyj-32" value="Рабочий" style="shape=umlActor;verticalLabelPosition=bottom;verticalAlign=top;html=1;outlineConnect=0;fillColor=#fff2cc;strokeColor=#d6b656;" vertex="1" parent="WIyWlLk6GJQsqaUBKTNV-1">
          <mxGeometry x="768" y="380" width="45" height="90" as="geometry" />
        </mxCell>
        <mxCell id="DW5_w6Yt8YtxqgNB4Eyj-37" value="" style="edgeStyle=orthogonalEdgeStyle;rounded=0;orthogonalLoop=1;jettySize=auto;html=1;opacity=50;" edge="1" parent="WIyWlLk6GJQsqaUBKTNV-1" source="DW5_w6Yt8YtxqgNB4Eyj-33" target="DW5_w6Yt8YtxqgNB4Eyj-36">
          <mxGeometry relative="1" as="geometry" />
        </mxCell>
        <mxCell id="DW5_w6Yt8YtxqgNB4Eyj-33" value="Выполнить план работы" style="rounded=0;whiteSpace=wrap;html=1;fillColor=#fff2cc;strokeColor=#d6b656;" vertex="1" parent="WIyWlLk6GJQsqaUBKTNV-1">
          <mxGeometry x="660" y="410" width="80" height="40" as="geometry" />
        </mxCell>
        <mxCell id="DW5_w6Yt8YtxqgNB4Eyj-35" value="" style="endArrow=none;html=1;rounded=0;opacity=50;edgeStyle=orthogonalEdgeStyle;entryX=1;entryY=0.5;entryDx=0;entryDy=0;fillColor=#fff2cc;strokeColor=#d6b656;exitX=0.5;exitY=0.5;exitDx=0;exitDy=0;exitPerimeter=0;" edge="1" parent="WIyWlLk6GJQsqaUBKTNV-1" source="DW5_w6Yt8YtxqgNB4Eyj-32" target="DW5_w6Yt8YtxqgNB4Eyj-33">
          <mxGeometry width="50" height="50" relative="1" as="geometry">
            <mxPoint x="330" y="370" as="sourcePoint" />
            <mxPoint x="380" y="320" as="targetPoint" />
            <Array as="points">
              <mxPoint x="791" y="430" />
            </Array>
          </mxGeometry>
        </mxCell>
        <mxCell id="DW5_w6Yt8YtxqgNB4Eyj-36" value="Получить зар. плату" style="rounded=0;whiteSpace=wrap;html=1;fillColor=#fff2cc;strokeColor=#d6b656;" vertex="1" parent="WIyWlLk6GJQsqaUBKTNV-1">
          <mxGeometry x="540" y="410" width="100" height="40" as="geometry" />
        </mxCell>
      </root>
    </mxGraphModel>
  </diagram>
</mxfile>
